<svg width="65" height="39" viewBox="0 0 65 39" fill="none" xmlns="http://www.w3.org/2000/svg">
<path d="M32.4504 0.712036H64.015L64.0145 32.2677H32.4504V0.712036Z" fill="white"/>
<path d="M0.886719 0.713135H32.4503V32.2688H0.886719V0.713135Z" fill="black"/>
<path d="M29.7982 9.51848L21.9588 14.0032C20.8102 12.1594 19.1748 11.4538 17.651 11.441C14.8761 11.4178 12.483 13.6455 12.4845 16.4872C12.4832 19.4105 14.8838 21.5309 17.5099 21.5755C19.0797 21.602 20.9897 20.7276 21.96 18.994L29.7989 23.4902C26.9493 28.4022 22.064 30.6201 17.4991 30.6122C10.2609 30.6003 3.4514 24.8133 3.45239 16.4996C3.45215 8.22938 10.2891 2.34191 17.5264 2.38846C22.22 2.41901 27.0052 4.62718 29.7984 9.51828L29.7982 9.51848Z" fill="white"/>
<path d="M34.7178 2.97351H43.7317L52.755 14.2538V2.97351H61.7615L61.762 30.0182H52.755L43.7317 18.7568V30.0182H34.7153L34.7178 2.97351Z" fill="black"/>
<path d="M4.49674 34.5563C4.99255 34.6957 5.40942 35.0428 5.67884 35.4773L4.64098 36.0709C4.46005 35.8188 4.1621 35.6379 3.84229 35.6858C3.52641 35.7165 3.24958 35.9568 3.16654 36.2623C3.03851 36.8046 3.42656 37.2549 3.90111 37.2782C4.16657 37.2861 4.4497 37.1689 4.64098 36.8862L5.67884 37.4853C5.33627 38.0518 4.72961 38.4359 4.06818 38.4918C2.84171 38.5296 1.7843 37.5902 1.95339 36.16C2.18125 34.9199 3.33504 34.2341 4.49674 34.5564V34.5563Z" fill="black"/>
<path d="M8.88998 34.558H6.96519L5.75977 38.4115H7.11453L7.31254 37.7652H8.54673L8.74103 38.4115H10.0954L8.88998 34.558ZM7.92788 35.6211L8.27211 36.8169H7.58285L7.92788 35.6211Z" fill="black"/>
<path d="M10.4841 34.5577V38.4113H11.7605L11.7605 37.2847H12.1764L12.7484 38.4113H14.1681L13.4242 37.1473C13.9972 36.7799 14.1933 36.3248 14.1717 35.8673C14.1722 35.1765 13.55 34.5771 12.8696 34.5577H10.4841ZM12.6097 35.6816C12.7741 35.6838 12.8941 35.8437 12.9013 35.9806C12.9055 36.1763 12.7565 36.323 12.6084 36.3266L11.7605 36.3278V35.6816H12.6097Z" fill="black"/>
<path d="M14.5239 35.6827V34.5576H18.3852V35.6827H17.177V38.4112H15.7329V35.6827H14.5239Z" fill="black"/>
<path d="M27.3142 34.5577H28.5879L29.8926 36.1602V34.5577H31.1672V38.4113H29.8926L28.5879 36.8054V38.4113H27.3142V34.5577Z" fill="black"/>
<path d="M33.7739 34.5577H35.0475L36.3522 36.1602V34.5577H37.6267V38.4113H36.3522L35.0475 36.8054V38.4113H33.7739V34.5577Z" fill="black"/>
<path d="M38.1809 34.5577H41.5461L41.546 35.682H39.4555V36.0765H41.2158V36.9767H39.4555V37.3822H41.546L41.546 38.4113H38.1809L38.1809 34.5577Z" fill="black"/>
<path d="M41.9717 35.6827V34.5576H45.8329V35.6827H44.6248V38.4112H43.1807V35.6827H41.9717Z" fill="black"/>
<path d="M46.1553 34.5577H47.4506C47.4506 34.5577 47.7746 36.2404 47.7759 36.2473L48.4143 34.6956L49.0643 36.2439L49.3897 34.5577H50.6731L49.9393 38.4113H48.8712L48.4142 37.371L47.9517 38.4113H46.9015C46.9015 38.4113 46.1692 34.6447 46.1553 34.5577Z" fill="black"/>
<path d="M55.186 34.5577V38.4113H56.4623L56.4648 37.2847H56.8783L57.4502 38.4113H58.87L58.1261 37.1473C58.699 36.7799 58.8954 36.3248 58.8737 35.8673C58.8742 35.1765 58.2518 34.5771 57.5715 34.5577H55.186ZM57.3115 35.6816C57.4759 35.6838 57.5958 35.8437 57.603 35.9806C57.6072 36.1763 57.4584 36.323 57.3103 36.3266L56.4623 36.3278V35.6816H57.3115Z" fill="black"/>
<path d="M59.2861 38.411V34.5575H60.575V35.8059L61.5361 34.5575H63.1796L61.6882 36.3946L63.1796 38.411H61.5361L60.575 36.977V38.411H59.2861Z" fill="black"/>
</svg>
