<svg width="101" height="32" viewBox="0 0 101 32" fill="none" xmlns="http://www.w3.org/2000/svg">
<path d="M13.251 11.6636V15.0346H21.2867C21.0515 16.9161 20.4243 18.2881 19.4444 19.268C18.2684 20.444 16.4261 21.7375 13.251 21.7375C8.31207 21.7375 4.43146 17.7393 4.43146 12.8003C4.43146 7.86134 8.27288 3.82392 13.251 3.82392C15.9165 3.82392 17.8764 4.88228 19.3268 6.21501L21.6787 3.86312C19.6795 1.94241 16.9749 0.452881 13.251 0.452881C6.46976 0.452881 0.746826 5.97982 0.746826 12.7611C0.746826 19.5424 6.46976 25.0693 13.251 25.0693C16.9357 25.0693 19.6795 23.8542 21.8354 21.6199C24.0697 19.3856 24.7361 16.2889 24.7361 13.7411C24.7361 12.9571 24.6969 12.2515 24.5401 11.6244H13.251V11.6636Z" fill="black"/>
<path d="M34.8102 8.91968C30.42 8.91968 26.8137 12.2515 26.8137 16.8769C26.8137 21.4631 30.3808 24.8341 34.8102 24.8341C39.2395 24.8341 42.8066 21.4631 42.8066 16.8769C42.7674 12.2515 39.2003 8.91968 34.8102 8.91968ZM34.8102 21.6983C32.4191 21.6983 30.3416 19.6992 30.3416 16.8769C30.3416 14.0154 32.4191 12.0555 34.8102 12.0555C37.2012 12.0555 39.2787 14.0154 39.2787 16.8769C39.2787 19.6992 37.2012 21.6983 34.8102 21.6983Z" fill="black"/>
<path d="M73.8906 10.6836H73.773C72.989 9.74284 71.4995 8.91968 69.5788 8.91968C65.6197 8.91968 62.1311 12.3691 62.1311 16.8769C62.1311 21.3455 65.5805 24.8341 69.5788 24.8341C71.4995 24.8341 72.989 23.9718 73.773 23.031H73.8906V24.1286C73.8906 27.1468 72.2442 28.7932 69.6572 28.7932C67.5405 28.7932 66.2077 27.2644 65.6589 25.9709L62.6407 27.2252C63.503 29.3419 65.8157 31.929 69.6963 31.929C73.773 31.929 77.2616 29.5379 77.2616 23.6582V9.35086H73.969V10.6836H73.8906ZM69.8923 21.6983C67.5012 21.6983 65.6589 19.66 65.6589 16.8769C65.6589 14.0546 67.5012 12.0555 69.8923 12.0555C72.2834 12.0555 74.1257 14.0938 74.1257 16.9161C74.1649 19.66 72.2834 21.6983 69.8923 21.6983Z" fill="black"/>
<path d="M52.6058 8.91968C48.2156 8.91968 44.6094 12.2515 44.6094 16.8769C44.6094 21.4631 48.1764 24.8341 52.6058 24.8341C57.0352 24.8341 60.6022 21.4631 60.6022 16.8769C60.563 12.2515 56.996 8.91968 52.6058 8.91968ZM52.6058 21.6983C50.2147 21.6983 48.1372 19.6992 48.1372 16.8769C48.1372 14.0154 50.2147 12.0555 52.6058 12.0555C54.9969 12.0555 57.0744 14.0154 57.0744 16.8769C57.0744 19.6992 54.9969 21.6983 52.6058 21.6983Z" fill="black"/>
<path d="M79.9663 0.766357H83.4157V24.7948H79.9663V0.766357Z" fill="black"/>
<path d="M93.9993 21.6981C92.2354 21.6981 90.981 20.875 90.1579 19.3071L100.781 14.9169L100.428 14.0153C99.7614 12.2514 97.7623 8.95874 93.6465 8.95874C89.5699 8.95874 86.1597 12.173 86.1597 16.916C86.1597 21.3846 89.5307 24.8732 94.0385 24.8732C97.6839 24.8732 99.8006 22.6389 100.663 21.3454L97.9583 19.5422C97.0176 20.7966 95.7632 21.6981 93.9993 21.6981ZM93.7641 11.8986C95.1753 11.8986 96.3904 12.6434 96.7824 13.6625L89.6091 16.6416C89.5699 13.2705 91.961 11.8986 93.7641 11.8986Z" fill="black"/>
</svg>
