<?xml version="1.0" encoding="utf-8"?>
<!-- Generator: Adobe Illustrator 26.0.1, SVG Export Plug-In . SVG Version: 6.00 Build 0)  -->
<svg version="1.1" id="HISTORY_LOGO_SMALL_-_1C_LIGHT"
	 xmlns="http://www.w3.org/2000/svg" xmlns:xlink="http://www.w3.org/1999/xlink" x="0px" y="0px" viewBox="0 0 182.6 211.4"
	 style="enable-background:new 0 0 182.6 211.4;" xml:space="preserve">
<g>
	<g>
		<g>
			<path d="M3,175.8h6.4v11.5h11.9v-11.5h6.4v29.8h-6.4v-12.1H9.4v12.1H3V175.8z"/>
			<path d="M39.8,175.8v29.8h-6.4v-29.8H39.8z"/>
			<path d="M49.6,195.8c1,2.6,3.1,4.3,5.7,4.3c2.1,0,3.8-1.1,3.8-3c0-1.4-1-2.4-3.1-3.2l-3.6-1.3c-4.3-1.6-7.1-4.2-7.1-8.5
				c0-5.4,4.1-8.9,9.7-8.9c4.4,0,8.3,2.4,10.1,6.4l-5.3,3.1c-0.9-2-2.5-3.6-4.7-3.6c-2,0-3.3,1.1-3.3,2.6c0,1.4,1.1,2.3,2.9,2.9
				l3.9,1.5c4.8,1.8,7.1,4.5,7.1,8.5c0,6-5,9.4-10.5,9.4c-4.9,0-9.3-2.6-11.1-7.3L49.6,195.8z"/>
			<path d="M68.3,175.8h22.1v6h-7.8v23.8h-6.4v-23.8h-7.9C68.3,181.8,68.3,175.8,68.3,175.8z"/>
			<path d="M107.5,206.1c-8.6,0-15.6-6.8-15.6-15.4c0-8.6,6.9-15.4,15.6-15.4s15.6,6.8,15.6,15.4C123,199.2,116.1,206.1,107.5,206.1
				z M107.5,181.4c-5.1,0-9,4.1-9,9.2s4,9.2,9,9.2s9-4.1,9-9.2S112.5,181.4,107.5,181.4z"/>
			<path d="M133.6,205.5h-6.3v-29.8h9.9c6.4,0,10.9,3.4,10.9,9.5c0,4.3-2.6,7.2-6.1,8.6l8.2,11.6h-7.5l-7.3-10.9h-1.7L133.6,205.5
				L133.6,205.5z M133.6,189.4h3.6c2.6,0,4.4-1.5,4.4-4s-1.9-3.9-4.4-3.9h-3.6V189.4z"/>
			<path d="M166.2,205.5h-6.4v-12.9l-10.6-16.8h7.3l6.6,10.9l6.6-10.9h7.2l-10.6,16.8v12.9H166.2z"/>
		</g>
		<path d="M134.4,139.4h-4.1V76H48.5v63.4h-4.1V17.1h4.1v54.8h81.9V17.1h4.1v122.3H134.4z M139.9,152.6h20.3v-2.4h-1.4
			c0,0-2.8,0.2-6.2-1.9c-4.4-2.5-4.2-8.5-4.2-8.5v-2.2l0,0V18.4c0.1-1.4,0.5-5.9,4.2-8c3.3-2.1,6.2-1.9,6.2-1.9h1.4V6.1h-56.8v2.4
			h1.4c0,0,2.8-0.2,6.2,1.9c3.7,2.1,4.1,6.6,4.2,8V21l0,0v1.2l-0.2,36H63.9l-0.1-35.9V21l0,0v-2.5c0.1-1.4,0.5-5.9,4.2-8
			c3.3-2.1,6.2-1.9,6.2-1.9h1.4V6.1H18.8v2.4h1.4c0,0,2.8-0.2,6.2,1.9c3.7,2.1,4.1,6.5,4.2,8v119.2l0,0v2.2c0,0,0.2,5.9-4.2,8.5
			c-3.3,2.1-6.2,1.9-6.2,1.9h-1.4v2.4h56.8v-2.4h-1.4c0,0-2.8,0.2-6.2-1.9c-3.4-2-4.1-6-4.2-7.7V89.8H115v50.8
			c-0.1,1.7-0.8,5.7-4.2,7.7c-3.3,2.1-6.2,2-6.2,2h-1.4v2.4L139.9,152.6z"/>
		<path d="M176.9,166.1H2V162h174.9V166.1z"/>
	</g>
</g>
<g>
	<path d="M169.2,201.8h2.7v0.7h-1v2.9h-0.8v-2.9h-1v-0.7H169.2z"/>
	<path d="M176.7,201.8v3.7h-0.8v-2.4l-1.1,2.4h-0.5l-1.1-2.4v2.4h-0.8v-3.7h1l1.2,2.6l1.2-2.6H176.7z"/>
</g>
</svg>
