<svg width="76" height="31" viewBox="0 0 76 31" fill="none" xmlns="http://www.w3.org/2000/svg">
<path d="M75.3894 2.62058H62.939L63.7371 0.465698H75.3894V2.62058Z" fill="black"/>
<path d="M42.188 0.465698H53.7605L54.4788 2.62058H42.188V0.465698Z" fill="black"/>
<path d="M33.0097 0.465698C34.9252 0.625319 36.6012 1.34361 37.958 2.62058H16.9678V0.465698H33.0097Z" fill="black"/>
<path d="M15.1322 0.465698H0.606689V2.62058H15.1322V0.465698Z" fill="black"/>
<path d="M75.3892 6.61118H61.5022L62.2205 4.4563H75.3094V6.61118H75.3892Z" fill="black"/>
<path d="M55.9952 6.61121H42.188V4.53613H55.1971L55.9952 6.61121Z" fill="black"/>
<path d="M39.634 4.53613C39.8734 5.25443 40.2725 5.8131 40.2725 6.69102H17.0476V4.53613H39.634Z" fill="black"/>
<path d="M15.1322 4.53613H0.606689V6.69102H15.1322V4.53613Z" fill="black"/>
<path d="M60.1455 10.6815L60.8638 8.52661H71.319V10.6815H60.1455Z" fill="black"/>
<path d="M56.6337 8.52661L57.4318 10.6815H46.3381V8.52661H56.6337Z" fill="black"/>
<path d="M40.4321 8.52661C40.4321 9.24491 40.3523 10.043 40.1129 10.6815H33.728V8.52661H40.4321Z" fill="black"/>
<path d="M10.9022 8.52661H4.677V10.6815H10.9022V8.52661Z" fill="black"/>
<path d="M27.5031 8.52661H21.2778V10.6815H27.5031V8.52661Z" fill="black"/>
<path d="M52.4835 12.9959V14.5921H46.3381V12.4373H58.0703L58.7886 14.4325L59.5069 12.4373H71.3188V14.5921H65.1734V12.9959L64.6148 14.5921H53.0422L52.4835 12.9959Z" fill="black"/>
<path d="M21.2778 12.5171H39.2352C38.8362 13.2354 38.1179 14.1133 37.4794 14.672H21.3576C21.2778 14.5922 21.2778 12.5171 21.2778 12.5171Z" fill="black"/>
<path d="M10.9022 12.5171H4.677V14.672H10.9022V12.5171Z" fill="black"/>
<path d="M71.319 16.5077H65.1736V18.6626H71.319V16.5077Z" fill="black"/>
<path d="M52.4835 16.5077H46.3381V18.6626H52.4835V16.5077Z" fill="black"/>
<path d="M63.9763 16.5077L63.258 18.6626H54.5586L53.7605 16.5077H63.9763Z" fill="black"/>
<path d="M21.2778 16.5077H37.3996C38.1179 17.1462 38.8362 17.8645 39.315 18.6626H21.2778C21.2778 18.6626 21.2778 16.5077 21.2778 16.5077Z" fill="black"/>
<path d="M10.9022 18.6626V16.5077H4.677V18.6626H10.9022Z" fill="black"/>
<path d="M71.319 20.578H65.1736V22.7329H71.319V20.578Z" fill="black"/>
<path d="M52.4835 20.578H46.3381V22.7329H52.4835V20.578Z" fill="black"/>
<path d="M61.7417 22.7329C61.7417 22.7329 62.46 20.578 62.5398 20.578H55.1174L55.9155 22.7329H61.7417Z" fill="black"/>
<path d="M21.2778 22.6531V20.4982H27.5829V22.6531H21.2778Z" fill="black"/>
<path d="M40.1927 20.578C40.512 21.2165 40.512 22.0146 40.5918 22.7329H33.8877V20.578H40.1927Z" fill="black"/>
<path d="M10.9022 20.578H4.677V22.7329H10.9022V20.578Z" fill="black"/>
<path d="M75.3893 24.4888H65.1736V26.6437H75.3893V24.4888Z" fill="black"/>
<path d="M52.4037 24.4888H42.188V26.6437H52.4037V24.4888Z" fill="black"/>
<path d="M60.3848 26.6437H57.2722L56.4741 24.4888H61.1031L60.3848 26.6437Z" fill="black"/>
<path d="M0.606689 24.4888V26.6437H15.1322V24.4888C15.1322 24.4888 0.606689 24.4888 0.606689 24.4888Z" fill="black"/>
<path d="M40.3523 24.4888C40.1927 25.2071 40.0331 26.085 39.5542 26.6437H39.3946H17.0476V24.4888H40.3523Z" fill="black"/>
<path d="M58.9482 30.6342H58.7088L57.9106 28.5591H59.7463L58.9482 30.6342Z" fill="black"/>
<path d="M75.3893 28.5591H65.1736V30.714H75.3893V28.5591Z" fill="black"/>
<path d="M17.0476 30.6341V28.4792C17.0476 28.4792 38.0378 28.4792 38.1176 28.4792C36.681 29.836 34.7656 30.5543 32.6905 30.6341H17.0476Z" fill="black"/>
<path d="M52.4037 28.5591H42.188V30.714H52.4037V28.5591Z" fill="black"/>
<path d="M15.1322 28.5591V30.714H0.606689V28.5591H15.1322Z" fill="black"/>
</svg>
