<svg width="123" height="14" viewBox="0 0 123 14" fill="none" xmlns="http://www.w3.org/2000/svg">
<path d="M47.2847 4.86657C47.2847 5.49039 46.297 5.98424 45.0494 5.98424C43.8277 5.98424 42.814 5.49039 42.814 4.86657C42.814 4.24276 43.8018 3.74891 45.0494 3.74891C46.271 3.74891 47.2847 4.26875 47.2847 4.86657ZM78.5534 3.74891C77.3317 3.74891 76.318 4.24276 76.318 4.86657C76.318 5.49039 77.3057 5.98424 78.5534 5.98424C79.801 5.98424 80.7887 5.49039 80.7887 4.86657C80.7887 4.26875 79.801 3.74891 78.5534 3.74891ZM121.311 10.7408H91.0036C87.4427 10.7408 84.5836 8.94735 84.5836 6.84198C84.5836 4.73661 87.4427 2.94315 91.0036 2.94315H121.311C122.246 2.94315 123 2.37132 123 1.69552C123 0.99373 122.246 0.447893 121.311 0.447893H91.0036C85.9092 0.447893 81.9323 3.25505 81.9323 6.86797C81.9323 7.95965 82.2702 8.97334 83.076 10.039L63.5558 0.577854C62.984 0.29194 62.4382 0.135986 61.7884 0.135986C61.1386 0.135986 60.6187 0.29194 60.0209 0.577854L39.9809 10.273V1.53957C39.9809 0.837776 39.0452 0.29194 37.8755 0.29194C37.0958 0.29194 36.6279 0.499877 36.6279 0.499877L17.0817 8.76541L18.7712 9.4672C19.2911 9.67513 19.7589 9.7791 20.3308 9.7791C20.9026 9.7791 21.3705 9.67513 21.8903 9.4672L37.5116 2.83918V12.5083C37.5116 12.9761 38.0835 13.34 38.7593 13.34H38.8632C39.1751 13.34 39.461 13.2621 39.695 13.1581L61.8144 2.47529L71.9773 7.41381H53.107L48.0905 9.83109H76.9938L83.9337 13.1841C84.1677 13.2881 84.4536 13.366 84.7655 13.366C85.5193 13.366 86.1171 13.0021 86.1171 12.5343C86.1171 12.4823 86.1171 12.3523 85.9871 12.1964C87.3127 12.7942 89.0022 13.2621 91.0036 13.2361H121.311C122.246 13.2361 123 12.6642 123 11.9884C122.974 11.2867 122.22 10.7408 121.311 10.7408ZM19.577 7.1019L3.98166 0.499877C3.98166 0.499877 3.48781 0.29194 2.73403 0.29194C1.56438 0.265947 0.628662 0.837776 0.628662 1.53957V12.5603C0.628662 13.0281 1.20049 13.392 1.87629 13.392C2.57808 13.392 3.12392 13.0281 3.12392 12.5603V2.86517L16.328 8.4535L19.577 7.1019Z" fill="black"/>
</svg>
