<svg width="128" height="28" viewBox="0 0 128 28" fill="none" xmlns="http://www.w3.org/2000/svg">
<path d="M0.700195 0.539185H13.6248C13.6248 4.84737 13.6248 9.15556 13.6248 13.4638C9.31657 13.4638 5.00838 13.4638 0.700195 13.4638V0.539185Z" fill="black"/>
<path d="M14.9443 0.539185H27.8689C27.8689 4.84737 27.8689 9.15556 27.8689 13.4638C23.5607 13.4638 19.2525 13.4638 14.9443 13.4638C14.9443 9.15556 14.9443 4.84737 14.9443 0.539185Z" fill="black"/>
<path d="M117.246 5.4606C118.442 4.68435 119.979 4.61449 121.321 4.97933C121.329 5.77887 121.321 6.5784 121.329 7.37794C120.693 7.09849 119.94 6.91219 119.272 7.19164C118.737 7.40123 118.426 7.95237 118.341 8.49574C118.24 9.1866 118.31 9.89299 118.286 10.5916C119.653 10.5916 121.011 10.5916 122.377 10.5916C122.385 9.70669 122.369 8.82177 122.393 7.93684C123.316 7.67292 124.24 7.37794 125.156 7.09849C125.164 8.26287 125.148 9.42724 125.164 10.5994C126.088 10.5839 127.011 10.5994 127.927 10.5916V12.8583C127.004 12.8195 126.08 12.8505 125.148 12.8427C125.156 14.1468 125.148 15.4509 125.148 16.755C125.164 17.477 125.11 18.2066 125.195 18.9208C125.249 19.3477 125.397 19.8135 125.8 20.0386C126.468 20.4112 127.314 20.2482 127.927 19.8368V22.1267C127.128 22.476 126.235 22.5769 125.374 22.5148C124.551 22.4527 123.705 22.1577 123.169 21.5057C122.548 20.7683 122.393 19.7747 122.377 18.8354C122.369 16.8327 122.377 14.8299 122.377 12.8272C121.011 12.8272 119.653 12.8272 118.286 12.8272C118.286 15.971 118.286 19.1148 118.286 22.2587C117.355 22.2587 116.423 22.2587 115.492 22.2587C115.492 19.1148 115.484 15.971 115.492 12.835C114.848 12.8195 114.196 12.835 113.543 12.8272C113.543 12.082 113.551 11.3368 113.543 10.5839C114.188 10.5683 114.832 10.5761 115.484 10.5761C115.531 9.58249 115.383 8.5656 115.678 7.59529C115.927 6.74142 116.485 5.9574 117.246 5.4606Z" fill="black"/>
<path d="M57.4051 5.62368C57.9717 5.5383 58.5772 5.73236 58.9498 6.17482C59.3845 6.6561 59.4699 7.42458 59.1439 7.99125C58.7868 8.62777 57.9795 8.92275 57.2809 8.7675C56.559 8.63553 55.9535 7.9602 55.9845 7.20723C55.9613 6.42322 56.6288 5.71683 57.4051 5.62368Z" fill="black"/>
<path d="M35.9807 5.97296C37.3392 5.97296 38.6898 5.97296 40.0483 5.97296C41.3136 9.18664 42.5866 12.3926 43.8519 15.6062C44.1779 16.4135 44.4807 17.2208 44.8144 18.0204C46.4446 14.0072 48.0902 10.0017 49.7126 5.98073C51.0167 5.95744 52.3208 5.97296 53.6249 5.97296C53.6249 11.4067 53.6249 16.8405 53.6249 22.2742C52.6856 22.2742 51.7464 22.282 50.8071 22.2665C50.8149 18.261 50.8071 14.2478 50.8149 10.2346C50.8149 10.056 50.8071 9.8775 50.7993 9.6912C50.745 9.77659 50.6984 9.86198 50.6518 9.95513C49.0372 14.0615 47.3916 18.1523 45.7848 22.2587C45.1172 22.282 44.4496 22.2587 43.7743 22.2742C42.1053 18.1679 40.4597 14.0537 38.8063 9.94737C38.7597 9.86198 38.7131 9.77659 38.6665 9.69897C38.6355 11.4533 38.6588 13.2154 38.651 14.9697C38.651 17.3994 38.651 19.8368 38.651 22.2665C37.7661 22.2665 36.8734 22.2665 35.9885 22.2665C35.9807 16.8405 35.9807 11.4067 35.9807 5.97296Z" fill="black"/>
<path d="M65.0977 10.5762C66.4484 10.188 67.8999 10.2036 69.2506 10.5917C69.5301 10.6693 69.794 10.778 70.0502 10.9255C70.0346 11.8182 70.0502 12.7109 70.0424 13.5958C69.1419 12.9049 68.0009 12.4702 66.852 12.6177C65.9438 12.7031 65.0744 13.1688 64.531 13.9063C63.8324 14.8145 63.6694 16.0254 63.7936 17.1432C63.8867 18.0126 64.2438 18.8898 64.9191 19.4642C65.6255 20.093 66.6114 20.3104 67.5351 20.2405C68.4433 20.1318 69.305 19.7514 70.0424 19.2081C70.0502 20.0542 70.0424 20.8925 70.0502 21.7387C68.9091 22.4218 67.5351 22.5925 66.231 22.5304C64.8959 22.4606 63.5607 21.956 62.5904 21.009C61.5347 19.9921 60.968 18.5483 60.8982 17.0967C60.8283 15.5907 61.1388 14.015 62.0004 12.7574C62.7224 11.694 63.8557 10.9332 65.0977 10.5762Z" fill="black"/>
<path d="M95.6277 10.4054C96.9163 10.1803 98.2747 10.3433 99.4934 10.8091C99.4934 11.6629 99.4934 12.5246 99.4934 13.3784C98.6395 12.7885 97.5916 12.478 96.5592 12.509C96.0391 12.5323 95.4647 12.7497 95.224 13.2465C95.0377 13.7355 95.1619 14.3798 95.6277 14.6748C96.4195 15.2026 97.3665 15.4277 98.1893 15.909C98.8336 16.2739 99.4624 16.7474 99.7884 17.4305C100.402 18.7113 100.145 20.4113 99.0587 21.3661C98.0263 22.3286 96.5359 22.6003 95.1697 22.546C94.1994 22.4839 93.2213 22.2898 92.3286 21.8939C92.3364 20.9935 92.3208 20.093 92.3364 19.1926C93.0893 19.7359 93.951 20.1318 94.8747 20.2871C95.5112 20.388 96.2099 20.3958 96.8076 20.1085C97.3742 19.8291 97.4829 19.014 97.1414 18.5172C96.8231 18.1369 96.3573 17.9273 95.9226 17.7177C95.0998 17.3451 94.2304 17.0346 93.5085 16.4834C92.9962 16.0876 92.6158 15.5287 92.4606 14.8999C92.2355 13.9684 92.3053 12.9205 92.8487 12.1132C93.4619 11.1661 94.5332 10.5995 95.6277 10.4054Z" fill="black"/>
<path d="M76.2914 10.7702C77.0598 10.3045 78.0457 10.2657 78.884 10.5529C78.8763 11.4844 78.884 12.4159 78.884 13.3474C78.3329 12.9903 77.642 12.8351 76.9978 12.9049C76.206 12.9981 75.5772 13.6036 75.2512 14.3022C74.8941 15.0396 74.832 15.878 74.8553 16.6853C74.8553 18.5483 74.8553 20.4113 74.8553 22.2743C73.9393 22.2743 73.0156 22.2743 72.0996 22.2743C72.0996 18.3853 72.0996 14.4885 72.0996 10.5995C73.0156 10.5839 73.9393 10.5917 74.8553 10.5995C74.8475 11.267 74.8553 11.9346 74.8553 12.6022C75.1503 11.8725 75.5927 11.1661 76.2914 10.7702Z" fill="black"/>
<path d="M56.2407 10.5917C57.1645 10.5917 58.096 10.5762 59.0197 10.5995C59.0119 14.4885 59.0197 18.3853 59.0119 22.2743C58.0882 22.2743 57.1645 22.2743 56.2407 22.2743C56.2407 18.3775 56.2407 14.4885 56.2407 10.5917Z" fill="black"/>
<path d="M88.036 10.8478C86.794 10.2812 85.3735 10.2035 84.0383 10.3743C82.6256 10.5529 81.2594 11.2127 80.3667 12.3382C79.5516 13.3396 79.1557 14.6282 79.0781 15.909C78.9694 17.4149 79.2178 19.014 80.1028 20.2715C80.8557 21.3583 82.0434 22.1035 83.3319 22.3751C84.4032 22.6003 85.5287 22.6003 86.6077 22.3751C87.8652 22.119 89.0374 21.4204 89.8136 20.3957C90.5744 19.4254 90.9547 18.2067 91.0401 16.9957C91.1255 15.746 91.0013 14.4574 90.4812 13.3085C89.9922 12.2373 89.115 11.3369 88.036 10.8478ZM87.7799 18.6802C87.5159 19.2779 87.0269 19.7902 86.4059 20.0309C85.684 20.3103 84.8689 20.3258 84.1237 20.1318C83.363 19.93 82.7187 19.3866 82.3694 18.688C81.9192 17.7875 81.8493 16.7473 81.9425 15.7615C82.0278 14.861 82.3383 13.9451 83.0214 13.3241C83.5182 12.8583 84.1936 12.6332 84.8612 12.6022C85.6995 12.5478 86.5922 12.7807 87.1977 13.3939C87.842 14.0305 88.0904 14.9542 88.1602 15.8314C88.2223 16.7861 88.1835 17.7875 87.7799 18.6802Z" fill="black"/>
<path d="M112.861 13.6579C112.434 12.5013 111.572 11.4922 110.462 10.9411C109.189 10.2968 107.706 10.2036 106.317 10.3744C105.191 10.5219 104.089 10.9488 103.227 11.7018C102.179 12.6022 101.566 13.9296 101.38 15.2881C101.209 16.6465 101.263 18.0748 101.822 19.3478C102.35 20.5976 103.398 21.6067 104.663 22.1035C105.905 22.5926 107.287 22.6469 108.599 22.4373C109.934 22.22 111.207 21.5136 112.038 20.4268C112.923 19.309 113.303 17.8574 113.303 16.4447C113.319 15.4976 113.202 14.5429 112.861 13.6579ZM110.338 17.6168C110.229 18.23 110.019 18.8433 109.616 19.3323C109.212 19.8214 108.607 20.1163 107.986 20.2095C107.318 20.3104 106.612 20.2638 105.983 19.9921C105.308 19.7049 104.788 19.1227 104.508 18.4474C104.174 17.6479 104.112 16.7552 104.174 15.9013C104.236 15.0707 104.469 14.2168 105.02 13.5725C105.517 12.9671 106.286 12.6333 107.062 12.5945C107.854 12.5401 108.692 12.7187 109.298 13.2543C109.856 13.72 110.167 14.4109 110.307 15.1173C110.477 15.9401 110.477 16.794 110.338 17.6168Z" fill="black"/>
<path d="M0.700195 14.7833C5.00838 14.7833 9.31657 14.7833 13.6248 14.7833C13.6248 19.0915 13.6248 23.3997 13.6248 27.7079H0.700195V14.7833Z" fill="black"/>
<path d="M14.9443 14.7833C19.2525 14.7833 23.5607 14.7833 27.8689 14.7833C27.8689 19.0915 27.8689 23.3997 27.8689 27.7079H14.9443C14.9443 23.3997 14.9443 19.0915 14.9443 14.7833Z" fill="black"/>
</svg>
