<svg width="126" height="19" viewBox="0 0 126 19" fill="none" xmlns="http://www.w3.org/2000/svg">
<path d="M122.461 16.3358H122V16.0998H123.199V16.3358H122.739V17.6205H122.461V16.3358ZM123.527 16.0757H123.573L124.31 16.8991L125.043 16.0757H125.09V17.6205H124.814V16.664L124.336 17.2323H124.285L123.804 16.664V17.6205H123.527V16.0757H123.527Z" fill="black"/>
<path d="M6.46419 6.19861C4.82374 6.19793 3.31775 6.87074 2.24358 7.94492C1.16667 9.01978 0.494316 10.528 0.496588 12.1685V17.6205H5.02544V15.2354V12.2598C5.02908 11.6086 5.18399 11.0491 5.44771 10.6173C5.71665 10.1907 6.06146 9.93881 6.46419 9.93699C6.86829 9.93836 7.21401 10.1905 7.48 10.6173C7.74598 11.0491 7.90022 11.6086 7.90135 12.2598V17.6205H12.4341V12.1685C12.4354 10.5278 11.7633 9.01978 10.6855 7.94492C9.612 6.87096 8.10601 6.19793 6.46419 6.19861Z" fill="black"/>
<path d="M114.956 6.19861C113.314 6.19793 111.806 6.87074 110.734 7.94492C109.659 9.01978 108.984 10.528 108.984 12.1685V17.6205H113.518L113.516 15.2354V12.2598C113.518 11.6086 113.674 11.0491 113.939 10.6173C114.205 10.1907 114.552 9.93881 114.956 9.93699C115.36 9.93836 115.706 10.1905 115.971 10.6173C116.234 11.0491 116.391 11.6086 116.394 12.2598V17.6205H120.925V12.1685C120.926 10.5278 120.253 9.01978 119.176 7.94492C118.102 6.87096 116.597 6.19793 114.956 6.19861Z" fill="black"/>
<path d="M17.3139 4.72976C17.7698 4.27592 18.051 3.64331 18.051 2.94824C18.051 2.25272 17.7698 1.62216 17.3139 1.16832C16.8562 0.711753 16.2259 0.428955 15.5308 0.428955C14.8357 0.428955 14.2068 0.711753 13.7493 1.16832C13.2941 1.62216 13.012 2.25272 13.012 2.94824C13.012 3.64331 13.2941 4.27592 13.7493 4.72976L14.3053 5.28672C15.2348 6.21621 15.3027 6.46243 14.4185 7.34444L13.9108 7.85212C13.4981 8.26575 13.2407 8.8393 13.2407 9.47145V17.6203H17.8223V9.47145C17.8223 8.8393 17.5651 8.26575 17.1501 7.85212L16.6443 7.34513C15.7616 6.46243 15.8281 6.21621 16.7567 5.28649L17.3139 4.72976Z" fill="black"/>
<path d="M25.4303 14.0743C25.1636 14.5652 24.8175 14.8575 24.4154 14.8582C24.0106 14.8575 23.6663 14.5652 23.3976 14.0743C23.1361 13.5737 22.9767 12.9308 22.9767 12.1735C22.9767 11.4194 23.1359 10.7757 23.3976 10.2755C23.6665 9.78371 24.0106 9.49138 24.4154 9.4891C24.8175 9.4916 25.1636 9.78371 25.4303 10.2755C25.6254 10.6466 25.7638 11.0973 25.8214 11.6134H30.3576C30.2254 10.1928 29.5896 8.90216 28.6369 7.95404C27.5641 6.87623 26.0545 6.20251 24.4156 6.2041C22.7715 6.20251 21.264 6.87623 20.1927 7.95404C19.1149 9.02459 18.4428 10.5328 18.4451 12.1742C18.4428 13.8165 19.1149 15.3234 20.1927 16.3969C21.0209 17.2239 22.4594 18.1448 24.4156 18.1448C25.885 18.1448 27.2441 17.6044 28.2846 16.7206C29.041 16.0773 30.1661 14.7862 30.3576 12.7373H25.8214C25.7638 13.2529 25.6254 13.7038 25.4303 14.0743Z" fill="black"/>
<path d="M47.746 6.19495C46.1062 6.19359 44.6002 6.86503 43.5247 7.94216C42.4491 9.01702 41.7754 10.523 41.7754 12.1648C41.7754 13.8071 42.4491 15.3131 43.5247 16.3861C44.5698 17.4321 46.0498 18.1363 47.7743 18.1345C49.5465 18.1363 51.013 17.344 52.0052 16.3489C53.2511 14.9181 53.3104 13.3889 53.3104 13.3889H49.2701C49.2701 13.3889 48.7127 14.7984 47.746 14.7984C47.3419 14.7984 46.9961 14.506 46.7295 14.0136C46.5482 13.6706 46.4212 13.2581 46.3554 12.7927H53.3915C53.3915 12.7927 53.873 9.92084 51.9498 7.97873C50.8302 6.8489 49.4055 6.19359 47.746 6.19495ZM46.4321 11.0988C46.5132 10.7502 46.6229 10.4426 46.7297 10.2139C46.9321 9.78274 47.3419 9.42998 47.7462 9.42861C48.1546 9.42998 48.4864 9.71732 48.7713 10.2325C48.8935 10.4521 49.0043 10.8367 49.0564 11.0916L46.4321 11.0988Z" fill="black"/>
<path d="M90.1725 6.19495C88.5305 6.19359 87.0231 6.86503 85.9499 7.94216C84.8727 9.01702 84.1997 10.523 84.1997 12.1648C84.1997 13.8071 84.8727 15.3131 85.9499 16.3861C86.9957 17.4321 88.4751 18.1363 90.1962 18.1345C91.9709 18.1363 93.4373 17.344 94.4274 16.3489C95.6768 14.9181 95.7354 13.3889 95.7354 13.3889H91.6937C91.6937 13.3889 91.137 14.7984 90.1725 14.7984C89.7657 14.7984 89.4214 14.506 89.154 14.0136C88.9757 13.6706 88.8458 13.2581 88.7803 12.7927H95.8158C95.8158 12.7927 96.2966 9.92084 94.3743 7.97873C93.254 6.8489 91.83 6.19359 90.1725 6.19495ZM88.8546 11.0988C88.9378 10.7502 89.0482 10.4426 89.1538 10.2139C89.3573 9.78274 89.7653 9.42998 90.1721 9.42861C90.5775 9.42998 90.9103 9.71732 91.1961 10.2325C91.3162 10.4521 91.4289 10.8367 91.482 11.0916L88.8546 11.0988Z" fill="black"/>
<path d="M56.3004 0.408576C55.0495 0.409257 54.0347 1.42506 54.0376 2.67596L54.0433 17.6204L58.5751 17.6186L58.5681 2.673C58.5678 1.42188 57.5522 0.405623 56.3004 0.408576Z" fill="black"/>
<path d="M65.1698 6.19861C61.8743 6.19861 59.1992 8.87009 59.1992 12.1685C59.1992 15.4669 61.8743 18.1381 65.1698 18.1381C68.4675 18.1381 71.139 15.4669 71.139 12.1685C71.139 8.87009 68.4675 6.19861 65.1698 6.19861ZM65.1698 14.857C64.3793 14.857 63.731 13.6533 63.731 12.1687C63.731 10.6825 64.3793 9.48043 65.1698 9.48043C65.9639 9.48043 66.6072 10.6825 66.6072 12.1687C66.6072 13.6533 65.9639 14.857 65.1698 14.857Z" fill="black"/>
<path d="M102.454 6.19861C99.156 6.19861 96.4829 8.87009 96.4829 12.1685C96.4829 15.4669 99.156 18.1381 102.454 18.1381C105.75 18.1381 108.423 15.4669 108.423 12.1685C108.423 8.87009 105.75 6.19861 102.454 6.19861ZM102.454 14.857C101.658 14.857 101.017 13.6533 101.017 12.1687C101.017 10.6825 101.658 9.48043 102.454 9.48043C103.248 9.48043 103.891 10.6825 103.891 12.1687C103.891 13.6533 103.248 14.857 102.454 14.857Z" fill="black"/>
<path d="M83.6246 12.1685L83.6335 12.1733L83.626 2.67264C83.626 1.42083 82.6104 0.405257 81.3625 0.40821C80.11 0.408891 79.0956 1.42469 79.0956 2.67559L79.0974 6.38036C78.6324 6.26565 78.1511 6.20364 77.6541 6.20364C76.0134 6.20205 74.507 6.87577 73.4337 7.95358C72.357 9.02412 71.6858 10.5324 71.6858 12.1737C71.6858 13.8158 72.357 15.3229 73.4337 16.395V16.3964C74.1208 17.0867 75.5968 18.1443 77.6541 18.1443C79.7138 18.1443 81.1887 17.0867 81.8767 16.3964C82.9539 15.3227 83.6246 13.8158 83.6246 12.1737C83.6246 12.1722 83.6246 12.1708 83.6246 12.1685ZM77.6541 14.857C76.86 14.857 76.2158 13.6534 76.2158 12.1687C76.2158 10.6825 76.86 9.48046 77.6541 9.48046C78.4491 9.48046 79.0937 10.6825 79.0937 12.1687C79.0935 13.6534 78.4491 14.857 77.6541 14.857Z" fill="black"/>
<path d="M42.4329 16.8304C42.4329 16.6787 42.3891 16.5381 42.313 16.4156L39.8323 12.662L41.5496 9.54192C42.186 8.46502 41.828 7.07647 40.7489 6.44091C39.6717 5.80672 38.2811 6.16402 37.6485 7.24251L35.5931 10.9091V8.46502C35.5931 7.21389 34.5796 6.199 33.3284 6.199C32.0766 6.199 31.0613 7.21389 31.0613 8.46502V17.6206H35.5931V14.0363L37.9868 17.6206L41.6447 17.6186C42.0809 17.6186 42.4329 17.2661 42.4329 16.8304Z" fill="black"/>
</svg>
