<svg width="140" height="18" viewBox="0 0 140 18" fill="none" xmlns="http://www.w3.org/2000/svg">
<path d="M131.729 10.5771L139.14 0.522885V17.4199H136.62V8.32912L131.704 14.8755L126.838 8.32912V17.4199H124.318V0.498182L131.729 10.5771ZM74.1458 13.0227C74.0964 12.1581 73.7011 10.4289 71.4284 8.62556L69.4522 6.89633C68.6123 6.22934 68.217 5.51295 68.1923 4.67304C68.1923 3.70961 68.8099 3.04262 69.798 2.99321C69.798 2.99321 71.0332 2.84499 71.7743 3.88253L71.799 3.93194L73.8 2.59796L73.7753 2.54855C73.4294 2.00508 71.8731 0.522885 69.7733 0.621698C68.5629 0.671105 67.5253 1.14047 66.7842 1.88157C66.0184 2.67207 65.6479 3.70961 65.722 4.92007C65.7961 6.32816 66.6113 7.63743 68.3158 9.02081L70.1686 10.6512C71.2061 11.4911 71.6508 12.2075 71.7002 13.0474C71.7496 13.665 71.552 14.2579 71.132 14.7026C70.7862 15.0978 70.3909 15.2707 69.8474 15.3201H69.7239C68.1676 15.3201 67.5253 14.2085 67.1548 13.5415L67.056 13.3686L64.9068 14.4061C65.1044 14.9496 66.2655 17.6917 69.6745 17.6917H69.7239C70.9591 17.6423 72.0954 17.1235 72.9106 16.2836C73.7753 15.419 74.2199 14.2579 74.1458 13.0227ZM24.6898 0.424072C19.8974 0.424072 15.9943 4.32719 15.9943 9.11963C15.9943 13.9121 19.8974 17.8152 24.6898 17.8152C29.4823 17.8152 33.3854 13.9121 33.3854 9.11963C33.4101 4.32719 29.4823 0.424072 24.6898 0.424072ZM24.6898 15.3201C21.2808 15.3201 18.514 12.5534 18.514 9.14433C18.514 5.73528 21.2808 2.96851 24.6898 2.96851C28.0989 2.96851 30.8657 5.73528 30.8657 9.14433C30.8904 12.5287 28.0989 15.3201 24.6898 15.3201ZM112.362 0.424072C107.569 0.424072 103.666 4.32719 103.666 9.11963C103.666 13.9121 107.569 17.8152 112.362 17.8152C117.154 17.8152 121.057 13.9368 121.057 9.11963C121.057 4.30249 117.154 0.424072 112.362 0.424072ZM112.362 15.3201C108.953 15.3201 106.186 12.5534 106.186 9.14433C106.186 5.73528 108.953 2.96851 112.362 2.96851C115.771 2.96851 118.538 5.73528 118.538 9.14433C118.538 12.5534 115.771 15.3201 112.362 15.3201ZM12.684 17.8152V0.868731H10.1643V11.417L0.258301 0.498182V17.3952H2.77803V7.01985L2.87685 7.11866L12.684 17.8152ZM86.868 0.868731H76.295V3.19084H80.2722V17.4199H82.8908V3.16614H86.868V0.868731ZM97.9103 11.17L97.9598 11.1453C98.2315 11.0218 98.5032 10.8489 98.7256 10.6759C100.084 9.6878 100.899 8.00798 100.899 6.22934C100.899 3.26495 98.7009 0.844028 96.0082 0.844028H90.1782V17.3952H92.698V11.6147H92.7474C92.7474 11.6147 94.106 11.6147 95.1189 11.6147H95.1436L95.1683 11.6394L98.9973 17.4199H102.011L97.9103 11.17ZM95.7365 9.07022H92.7227V3.31436H95.7365C97.194 3.31436 98.355 4.59893 98.355 6.17993C98.355 7.78565 97.194 9.07022 95.7365 9.07022ZM55.7666 0.868731H51.6658V17.4199H55.7666C59.7685 17.4199 62.9305 13.7144 62.9305 9.14433C62.9305 4.57422 59.7438 0.868731 55.7666 0.868731ZM55.6925 15.0237H54.1608V3.24025H55.6925C58.4098 3.24025 60.4602 5.8835 60.4602 9.14433C60.4602 12.3805 58.4098 15.0237 55.6925 15.0237ZM44.4031 11.17L44.4525 11.1453C44.7242 11.0218 44.9959 10.8489 45.2183 10.6759C46.5769 9.6878 47.3922 8.00798 47.3922 6.22934C47.3922 3.26495 45.1936 0.844028 42.5009 0.844028H36.6709V17.3952H39.1907V11.6147H39.2401C39.2401 11.6147 40.5988 11.6147 41.6116 11.6147H41.6363L41.661 11.6394L45.49 17.4199H48.5038L44.4031 11.17ZM42.2292 9.07022H39.2154V3.31436H42.2292C43.6867 3.31436 44.8477 4.59893 44.8477 6.17993C44.8477 7.76094 43.6867 9.07022 42.2292 9.07022Z" fill="black"/>
</svg>
