<svg width="42" height="57" viewBox="0 0 42 57" fill="none" xmlns="http://www.w3.org/2000/svg">
<path d="M1.08496 20.2794C1.08496 9.0388 10.1238 0 21.3643 0C32.6049 0 41.6437 9.0388 41.6437 20.2794C41.6437 31.5199 32.6049 40.5587 21.3643 40.5587C10.1238 40.6746 1.08496 31.5199 1.08496 20.2794ZM21.3643 33.9534C28.8966 33.9534 34.9225 27.9276 34.9225 20.3952C34.9225 12.8629 28.8966 6.72116 21.3643 6.72116C13.832 6.72116 7.80612 12.8629 7.80612 20.2794C7.80612 27.6958 13.832 33.9534 21.3643 33.9534ZM28.0855 20.2794C28.0855 23.9876 25.0725 27.0005 21.3643 27.0005C17.6561 27.0005 14.6432 23.9876 14.6432 20.2794C14.6432 16.5711 17.6561 13.5582 21.3643 13.5582C25.0725 13.5582 28.0855 16.5711 28.0855 20.2794Z" fill="black"/>
<path d="M4.5606 43.3398V45.7734H6.18295V47.2798H4.5606V51.2198C4.5606 52.031 4.79237 52.1469 5.48766 52.1469C5.71942 52.1469 5.95119 52.1469 6.18295 52.031V53.7692C5.71942 53.8851 5.2559 53.8851 4.90825 53.8851C3.2859 53.8851 2.35885 53.4216 2.35885 51.9151V47.2798H0.968262V45.7734H2.24296V43.3398C2.24296 43.3398 4.5606 43.3398 4.5606 43.3398ZM14.0629 51.6833C14.0629 52.1469 14.1788 52.2628 14.6423 52.2628H14.7582V53.7692C14.5265 53.8851 14.1788 54.001 13.8312 54.001C12.7882 54.001 12.3247 53.6533 12.0929 52.958C11.6294 53.5375 10.5865 54.001 9.31177 54.001C7.68942 54.001 6.64648 53.1898 6.64648 51.5675C6.5306 50.9881 6.76236 50.2928 7.22589 49.8292C7.68942 49.3657 8.50059 49.2498 9.77529 49.0181C11.2818 48.7863 11.7453 48.7863 11.7453 47.9751C11.7453 47.0481 11.1659 46.9322 10.3547 46.9322C9.42765 46.9322 8.96412 47.2798 8.84824 48.091H6.87824C6.99413 46.3528 8.38471 45.4257 10.5865 45.4257C12.9041 45.4257 14.0629 46.2369 14.0629 47.7434V51.6833ZM10.0071 52.4945C11.1659 52.4945 11.7453 51.9151 11.7453 50.6404V49.8292C11.5135 50.061 11.1659 50.1769 10.4706 50.1769C9.31177 50.2928 8.73236 50.5245 8.73236 51.4516C8.73236 52.031 9.08 52.4945 10.0071 52.4945ZM20.3206 45.5416V47.5116C20.0888 47.5116 19.857 47.5116 19.6253 47.5116C18.0029 47.5116 17.4235 48.5545 17.4235 50.061V53.6533H15.2217V45.6575H17.3076V47.1639C17.7712 46.121 18.8141 45.4257 19.857 45.4257C20.0888 45.5416 20.2047 45.5416 20.3206 45.5416ZM26.1147 46.8163V45.7734H28.2005V53.3057C28.2005 55.3916 27.0417 56.898 24.1447 56.898C22.2906 56.898 20.7841 55.971 20.5523 54.3486H22.7541C22.9858 55.1598 23.5653 55.3916 24.3764 55.3916C25.5352 55.3916 26.1147 54.6963 26.1147 53.4216V52.3786C25.6511 53.1898 24.6082 53.6533 23.6811 53.6533C21.3635 53.6533 20.3206 52.031 20.3206 49.5975C20.3206 47.6275 21.4794 45.6575 23.6811 45.6575C24.7241 45.4257 25.6511 46.0051 26.1147 46.8163ZM24.2605 51.7992C25.4194 51.7992 26.1147 50.8722 26.1147 49.5975C26.1147 48.4386 25.767 47.1639 24.2605 47.1639C23.1017 47.1639 22.5223 48.091 22.5223 49.4816C22.5223 50.7563 22.9858 51.7992 24.2605 51.7992ZM36.7758 49.8292V50.2928H30.9817C31.0976 51.6833 31.677 52.2628 32.9517 52.2628C33.7629 52.2628 34.574 51.7992 34.6899 51.2198H36.6599C36.0805 53.0739 34.8058 53.8851 32.9517 53.8851C30.4023 53.8851 28.8958 52.1469 28.8958 49.7134C28.8958 47.2798 30.5182 45.5416 32.9517 45.5416C35.3852 45.5416 36.7758 47.5116 36.7758 49.8292ZM34.574 48.9022C34.3423 47.7434 33.7629 47.1639 32.8358 47.1639C31.9088 47.0481 31.0976 47.7434 30.9817 48.7863V48.9022H34.574ZM40.1364 43.3398V45.7734H41.7587V47.2798H40.1364V51.2198C40.1364 52.031 40.3681 52.1469 41.0634 52.1469C41.2952 52.1469 41.527 52.1469 41.7587 52.031V53.7692C41.2952 53.8851 40.8317 53.8851 40.484 53.8851C38.8617 53.8851 37.9346 53.4216 37.9346 51.9151V47.2798H36.6599V45.7734H37.9346V43.3398C37.9346 43.3398 40.1364 43.3398 40.1364 43.3398Z" fill="black"/>
</svg>
