<svg width="142" height="40" viewBox="0 0 142 40" fill="none" xmlns="http://www.w3.org/2000/svg">
<path d="M54.0106 18.6991C53.9603 17.3911 53.7591 15.9825 52.5517 15.4794C50.64 14.8254 49.0804 16.3849 48.0743 17.6426L48.024 17.6929H47.9234C46.3135 17.3408 44.9049 16.9886 43.7981 15.8315C43.6975 15.6806 43.6975 15.4794 43.6975 15.3285C43.6975 15.1775 43.6472 15.1272 43.6472 15.0266C43.1944 15.3285 42.9429 15.8818 42.9429 16.4352V16.4855C43.0938 18.3972 45.1564 19.2022 46.6657 19.8562L46.8669 19.9568L46.6153 20.7114C46.4141 21.3654 46.1626 22.0194 46.062 22.7237C45.7601 24.2833 45.5589 25.8428 45.5589 27.3017C45.5589 29.0625 45.911 30.6221 46.8669 31.8295C47.219 32.2319 47.8227 32.6847 48.5774 32.5338C48.8792 32.4331 48.9295 32.3325 48.9295 32.2319C48.678 28.7607 48.527 24.3336 49.6338 20.7114L49.6841 20.6108H49.8351C49.8351 20.6108 50.8915 20.7114 51.9983 20.5102C52.8535 20.2586 53.5578 19.6549 54.0106 18.6991ZM52.2498 17.542L52.1492 17.5923C51.6461 17.8439 51.0928 17.9445 50.5394 17.8439H50.4387V17.7432C50.4387 17.4414 50.5897 17.0389 50.9418 16.7371C51.2437 16.4855 51.7468 16.2843 52.1492 16.3346C52.4008 16.3849 52.602 16.4855 52.7529 16.6868C53.0045 17.0892 52.5014 17.3911 52.2498 17.542Z" fill="black"/>
<path d="M62.1604 27.5533C62.915 28.0061 63.6697 28.4588 64.5249 28.8613L64.6255 28.9116V29.0122C64.7261 30.0184 64.8771 31.1252 65.5814 31.9804C65.682 32.081 66.2857 32.1313 67.0906 31.9301C67.7446 31.6785 67.7949 31.0245 67.8452 30.4208V30.2699V30.119L68.7508 30.2699C69.4048 30.4208 70.2097 30.5718 71.1656 30.6724C76.3473 31.3264 83.491 30.0184 86.6604 24.1827C89.2764 18.6991 84.4971 13.4168 81.378 10.7505C80.875 10.2977 79.2148 8.93937 78.3596 8.4363C73.2282 5.16628 62.915 0.1858 52.3504 3.20427C51.0927 3.65704 50.6902 5.06567 50.5393 5.71967C50.9921 6.22275 51.6461 6.22275 52.451 6.22275C52.451 6.22275 52.7529 6.22275 52.8032 6.22275C52.8535 6.17244 53.0547 6.12213 53.0547 6.12213C53.2559 6.07182 53.3062 6.02152 53.3565 5.9209C53.2056 5.61905 52.8535 5.56875 52.5013 5.46813C52.2498 5.41782 51.9479 5.36751 51.6964 5.21659L51.5455 5.16628L51.6461 5.06567C51.8473 4.86443 52.0989 4.81413 52.3001 4.81413C52.451 4.76382 52.6019 4.76382 52.7025 4.71351H52.7529H52.8032C61.3555 3.45581 70.26 5.82029 77.8565 11.3038C81.378 13.8192 85.2518 17.8942 83.9941 23.0256C82.7364 26.6981 78.3596 28.5091 71.0146 28.4588C69.9079 28.4588 68.952 28.2576 67.9458 27.9055L67.8452 27.8551V27.7545C67.8955 24.5851 67.7949 20.9127 67.7949 19.3531V19.2022H67.9458C70.0085 19.1016 73.9828 19.7053 76.5988 20.8623C76.7497 20.963 76.7497 21.0636 76.7497 21.1642C76.7497 21.5163 76.2466 21.9691 75.5423 22.5728L75.1399 22.925C75.1399 22.925 75.1399 22.925 75.1399 22.9753C75.2405 23.1262 75.9448 23.3777 76.5485 23.3274C77.5547 23.1765 78.5105 22.3716 78.9633 21.2648C79.0136 21.0636 79.0639 20.8623 79.0639 20.6611C79.0639 19.9568 78.6614 19.4034 78.259 18.9506C75.6429 16.7371 72.0208 16.6365 68.4992 16.5359H67.8955V15.9322C67.8452 14.6745 67.7949 12.964 67.5937 11.9578C67.3925 10.9517 66.9397 10.4486 66.0844 10.1971C65.4808 10.9014 65.3801 11.8572 65.2795 12.8131L65.028 14.9763L64.8268 16.6868V16.7874L61.5064 17.4917C60.0475 17.8439 56.0732 19.2525 56.0732 21.2648C56.0732 21.3654 56.0732 21.4157 56.0732 21.5163C56.5763 23.7299 60.5003 26.4968 62.1604 27.5533ZM56.6266 21.2145C56.8278 20.7114 57.7836 20.4096 58.7395 20.158L58.8401 20.1077C60.45 19.655 62.3617 19.4034 64.5752 19.3028H64.7261V19.4537C64.5752 21.9188 64.5249 24.7361 64.5249 26.5471V26.7484L64.3237 26.6981C62.0095 25.9938 58.8401 24.5851 56.6769 21.7176C56.5259 21.5163 56.5763 21.3151 56.6266 21.2145Z" fill="black"/>
<path d="M101.199 28.509C102.91 28.2575 105.224 27.6538 105.677 25.5408C105.928 23.8304 105.626 22.6733 104.721 21.9187C103.262 20.9628 101.401 20.8119 99.6397 20.661C98.2311 20.5604 96.7219 20.4597 95.4139 19.9064H95.3636L95.2629 19.6045C95.3133 19.5039 95.4139 19.4033 95.5648 19.353C97.225 18.8499 99.0863 18.699 100.897 18.548C102.457 18.4474 104.017 18.2965 105.475 17.9444C105.677 17.894 105.928 17.6425 106.029 17.3407C106.079 17.1897 106.129 17.0388 106.079 16.9885C105.677 16.586 105.174 16.4854 104.57 16.4351H104.469C101.149 15.8817 96.571 15.7811 93.6028 18.5984C93.2003 19.0511 93.2003 19.9064 93.2506 20.661C93.3512 21.0131 93.804 21.4659 94.2568 21.6168C95.3133 21.8684 96.42 21.9187 97.6274 21.969C99.841 22.0696 102.155 22.1702 103.916 23.5788C104.067 23.7801 104.117 23.9813 104.067 24.1825C104.017 24.4341 103.815 24.6856 103.513 24.8365C101.3 25.7421 98.6336 26.5973 95.6151 25.9433C95.3133 25.8427 94.9108 25.5912 94.7599 25.2893C94.7096 25.1384 94.7096 24.9875 94.7599 24.7862C95.6151 23.4279 96.9231 23.9813 98.0802 24.4844C98.533 24.6856 98.9857 24.8365 99.3882 24.9372C99.9919 25.0881 101.551 24.8868 102.306 24.1322C102.306 24.0819 102.306 24.0819 102.306 24.0819V24.0316C102.205 23.7801 101.451 23.5285 101.199 23.4782C98.9354 22.8745 96.3194 22.3714 94.6089 23.5285C94.1562 23.8304 93.7034 24.8365 94.0556 25.6415C95.7157 28.3078 98.8348 28.8612 101.199 28.509Z" fill="black"/>
<path d="M132.793 29.0122H132.893C134.05 29.1632 134.755 29.1632 136.365 28.4588C138.88 27.2515 141.597 24.4845 141.748 21.2648C141.798 19.504 141.094 18.0451 139.786 17.1396C139.383 16.888 138.981 16.9886 138.528 17.1899C135.761 18.7997 132.34 22.6231 131.585 24.233L131.284 24.1827C131.233 22.4219 131.988 20.963 132.742 19.6047C133.396 18.3973 134 17.2905 134.101 15.9322C134.101 15.8316 134.101 15.7813 134.05 15.7813C133.9 15.7309 133.296 16.1334 133.044 16.5359C130.68 19.3531 128.215 23.0256 130.126 26.5974L130.177 26.6478V26.6981C128.969 29.8675 127.812 33.389 127.611 37.2627C127.661 38.0173 128.215 38.8223 129.171 39.426L129.221 39.4763C129.724 39.7278 129.875 39.7781 129.925 39.7278C130.579 35.9044 131.535 32.4332 132.742 29.1128L132.793 29.0122ZM134.453 25.8428C135.258 24.0317 137.321 21.0133 139.383 19.2022C139.534 19.0513 139.635 19.1016 139.685 19.1519C140.087 19.3531 140.188 20.9127 140.138 21.466C139.786 23.6796 137.119 25.541 135.761 25.8931C135.308 25.9938 135.107 26.0441 134.654 26.0441H134.352L134.453 25.8428Z" fill="black"/>
<path d="M112.67 21.466C111.714 19.9568 110.708 18.3469 109.299 17.0892C109.198 16.9886 109.098 16.9886 108.997 16.9886C108.796 17.0389 108.595 17.1898 108.494 17.4414C107.538 19.4034 107.035 21.6169 106.834 24.6857V25.0379C106.733 26.3459 106.633 27.8551 107.84 28.5091C108.192 28.6097 108.695 28.5594 108.796 28.3079C109.299 26.6477 109.349 24.6857 109.4 22.8243L109.45 21.466C109.45 21.3151 109.5 20.9126 109.752 20.812C109.802 20.812 109.903 20.7617 110.003 20.9126C111.06 22.9752 112.167 24.736 113.072 26.2453L113.122 26.3459C113.625 27.2011 114.078 27.9054 114.984 27.8551C115.99 27.7042 116.745 26.8993 117.147 26.2453C117.499 25.1888 117.7 24.082 117.7 22.8746C117.7 20.7114 117.097 18.3972 115.94 16.5358L115.789 16.3346C115.235 15.4794 114.581 14.4732 113.676 14.272C113.575 14.272 113.525 14.272 113.525 14.3223C113.424 14.4732 113.424 14.8254 113.525 15.0769L114.129 17.4414C114.581 19.1015 115.084 20.8623 115.235 22.6734L115.286 22.9752C115.336 23.4783 115.437 24.082 115.084 24.4845L114.984 24.6354L114.883 24.4845C113.927 23.5286 113.273 22.4722 112.67 21.466Z" fill="black"/>
<path d="M120.216 29.2135C122.882 29.7166 125.146 28.2577 127.359 26.5975C127.46 26.4969 127.41 26.2957 127.41 26.195C127.309 25.7423 126.957 25.2895 126.856 25.2895C125.85 25.1889 124.844 25.3398 123.838 25.541C122.983 25.692 122.127 25.8429 121.272 25.8429H121.121L121.171 25.692C121.322 24.9373 121.524 24.0318 122.077 23.1766L122.127 23.1263H122.178C122.731 23.0256 123.385 23.0256 123.989 23.0256C125.146 22.9753 126.353 22.9753 126.907 22.5729C127.007 22.422 127.058 22.0698 127.007 21.7176C126.957 21.4661 126.907 21.3655 126.907 21.3655C125.85 21.0133 124.492 21.1139 123.435 21.1643H123.033H122.832L123.083 20.309L123.536 18.9507H123.637C124.643 19.0513 125.649 19.001 126.504 18.9004L127.158 18.8501C127.913 18.8501 128.718 18.7998 129.221 18.2967C129.372 18.0452 128.718 17.0893 128.265 16.6869C127.812 16.3347 127.661 16.2341 127.46 16.2341C126.001 16.0328 123.234 16.4856 120.769 16.8881L119.159 17.1396C119.109 17.1396 119.059 17.1396 119.059 17.1899C119.008 17.2905 119.109 17.4918 119.109 17.5924C119.26 18.2464 119.763 18.3973 120.367 18.5482C120.668 18.5986 120.97 18.6992 121.222 18.8501L121.322 18.9004L120.97 19.7556C120.769 20.2587 120.618 20.7618 120.266 21.2146V21.2649L119.863 21.3655C119.461 21.4158 119.209 21.5164 119.209 21.8686C119.209 22.0195 119.26 22.1704 119.31 22.3213C119.411 22.5226 119.461 22.7238 119.461 23.0256L119.159 23.73C118.757 24.6355 118.354 25.541 118.555 26.5975C118.958 28.1067 119.562 29.0626 120.216 29.2135Z" fill="black"/>
<path d="M41.0313 14.6745C41.0313 14.6745 40.9307 14.6242 40.8301 14.6745C39.4215 15.4794 38.9687 17.0892 38.6166 18.2966L38.5159 18.6488C38.0129 20.4096 37.4595 22.3213 37.4595 24.233C37.4595 25.1888 37.6104 26.0944 37.9122 27.0502C38.1638 27.8048 38.9687 28.3582 39.9246 28.5091C41.8363 28.4085 44.1001 27.1508 44.7541 24.9876C44.8547 24.5348 44.8547 24.0317 44.7038 23.8305C44.7038 23.7802 44.6535 23.7802 44.6535 23.7802C43.7983 23.8305 43.0436 24.1827 42.2387 24.5348C42.2387 24.5348 40.8804 25.0379 40.8804 25.0882H40.6792C40.4779 25.1385 40.1761 25.2391 40.0252 25.1385C39.9246 25.0882 39.8743 24.9876 39.8239 24.8367C39.7233 22.8243 40.2767 20.9126 40.7798 19.1016L41.132 17.6929C41.3835 16.7874 41.635 15.8818 41.2829 15.0266C41.1823 14.8254 41.0816 14.7248 41.0313 14.6745Z" fill="black"/>
<path d="M88.4211 14.2216C88.5217 14.0707 88.6727 13.8695 88.8236 13.7185L88.8739 13.6682L88.9745 13.7185C91.0371 14.5235 93.301 13.9701 95.7661 12.0584C97.225 10.851 99.0361 9.29144 98.3318 7.32943C97.9796 6.57481 97.1747 6.07174 96.3195 6.07174H96.2691L96.2188 6.02143C95.4642 5.01527 94.2065 4.5625 92.7476 4.76373C90.2825 5.2165 87.0628 6.77605 86.107 9.6939C86.0566 9.94544 86.0566 10.197 86.0566 10.3982C86.0566 11.2031 86.3585 11.9075 86.9622 12.5111L87.0125 12.5615V12.6621C86.9622 12.9136 86.9622 13.1651 86.9622 13.4167C86.9622 13.9198 87.0628 14.4228 87.5156 14.7247C87.9683 14.9259 88.1193 14.6744 88.4211 14.2216ZM96.3698 7.43005C96.6213 7.53066 96.7722 7.63128 96.9232 8.03374C97.2753 8.98959 96.1182 10.2473 95.1624 10.851C93.8544 11.5553 92.0936 12.3602 89.9807 12.1087H89.7794L89.8297 11.9578C90.0813 11.2031 90.5844 10.6498 91.339 9.89514C92.4457 8.73805 94.4581 6.77605 96.3698 7.43005ZM88.4211 8.3859C88.4211 8.3859 88.5217 8.28528 88.5217 8.23498C88.9745 7.7822 89.9304 6.97728 91.0371 7.02759H91.4396L91.0874 7.27912C89.88 8.18467 88.7733 9.34175 87.8677 10.7001L87.7168 10.9013L87.6162 10.7001C87.2137 9.89514 87.8677 9.09021 88.4211 8.3859Z" fill="black"/>
<path d="M33.334 14.2217C33.0321 14.3223 32.9818 14.7248 32.9818 14.8757V14.926L32.9315 14.9763C30.8689 17.2402 29.5609 19.9065 28.3535 22.4219L28.3032 22.4722H28.2026C27.6492 22.5225 27.2467 22.4722 26.7436 22.3213L26.5927 22.2709L26.643 22.12C28.4038 17.542 28.1523 11.3038 25.989 6.87673C24.7313 4.36133 22.4172 1.39317 19.7005 0.63855C19.7005 0.63855 19.6502 0.63855 19.5999 0.688858C19.5496 0.739166 19.5496 0.789474 19.5496 0.789474H19.5999C23.0712 3.80795 24.8319 8.23504 24.8822 13.8695C24.5804 19.0512 23.1718 22.8746 20.4048 25.8428C18.2919 27.8551 16.2293 28.5091 14.3176 27.8048C13.563 27.4527 12.7077 26.6477 12.5568 25.7925V25.6919L12.6071 25.6416C14.871 23.6293 16.3299 21.9188 17.1851 20.2586C18.3925 17.9445 18.6944 14.2217 16.9336 11.7566C16.5311 11.3541 15.9274 11.1026 15.2231 11.1026C13.7139 11.2032 12.255 11.9578 10.8463 13.3664C7.72725 16.3849 8.43156 21.5666 9.33711 25.7422V25.8428L9.2868 25.8931C8.53218 26.5974 7.27448 26.7987 6.16771 26.4465C4.8094 25.9434 4.15539 24.4845 3.95416 23.2771C3.45108 17.542 5.06093 12.0081 8.6831 7.17858C9.03526 6.6755 9.48803 6.22273 9.9408 5.76996C10.5948 5.16626 11.1985 4.56257 11.5003 3.80795C11.5507 3.70733 11.5003 3.70733 11.5003 3.70733C11.3997 3.60672 10.9973 3.60672 10.7457 3.70733C7.42541 5.21657 4.45724 8.53689 2.69646 12.8634C0.432608 18.6488 0.3823 23.0759 2.44492 25.9937C3.75293 27.7042 5.91617 28.4085 8.33095 27.9054C8.88434 27.8048 9.43772 27.6539 9.89049 27.4024L10.0414 27.352L10.0917 27.503C10.8463 29.0625 12.4562 30.3705 14.066 30.8233C17.6379 31.7288 20.6061 29.7165 23.0712 27.6539C24.6307 26.1447 25.6872 24.3839 26.5927 22.6734L26.6933 22.5225L26.8443 22.6231C27.0958 22.8243 27.7498 23.8305 27.7498 24.1826V24.233L27.3473 25.39C27.1461 25.9434 26.8946 26.4968 26.7939 27.1005C26.7939 27.1508 26.8443 27.503 26.8443 27.503C26.9449 28.3582 27.0455 29.2134 27.8504 29.465C28.3032 29.5656 28.8566 29.5656 28.9572 29.3141L29.259 28.3582C29.6112 27.2514 29.9633 26.1447 30.4664 25.0882L30.5167 24.9876H30.6173C31.9254 25.0882 33.9377 25.1385 34.1892 24.9876L34.4911 24.8366L34.4408 25.1385C34.3904 25.39 34.5414 26.4968 34.642 27.1508C34.9438 27.9557 35.6984 28.8613 36.5537 28.9619C36.604 28.9619 36.604 28.9619 36.604 28.9619C36.6543 28.9116 36.7046 28.811 36.7046 28.66C36.7549 22.7237 36.0003 18.1457 34.3904 14.272C34.0886 14.0708 33.6861 14.1211 33.334 14.2217ZM12.0537 23.6293L12.0034 23.3274C11.7519 22.2709 11.8525 21.0133 11.9028 19.8562L11.9531 19.1519L12.1543 17.8439C12.4562 15.9322 12.758 13.9701 14.0157 12.5112C14.1164 12.4106 14.2673 12.3603 14.4182 12.3603C14.5691 12.3603 14.7201 12.4609 14.8207 12.6118C15.2734 13.3161 15.4747 14.2217 15.3741 15.4291C15.1728 18.6488 14.217 21.1642 12.3053 23.3777L12.0537 23.6293ZM33.988 22.0697C33.3843 22.4219 32.7303 22.4219 31.875 22.3716C31.7744 22.3716 31.6738 22.3213 31.6235 22.2709C31.5229 22.12 31.6235 21.9691 31.6738 21.8685C32.0763 20.9126 32.529 19.9065 33.1327 18.85L33.2837 18.5985L33.3843 18.85C33.7867 19.6046 33.8874 20.5102 33.988 21.3654L34.0886 22.0194L33.988 22.0697Z" fill="black"/>
<path d="M89.1758 26.4465C89.1758 27.5029 89.1758 28.5594 90.2826 28.7606C90.685 28.8613 91.339 28.811 91.6409 28.6097C91.6912 28.5594 91.7415 28.5091 91.7415 28.5091C91.7918 27.6539 91.8421 26.7483 91.8421 25.8428C91.8421 23.4783 91.6409 21.0635 91.4396 18.6991L91.339 17.6426C91.2887 17.3408 90.8863 16.4855 90.2323 16.3346C89.8801 16.3346 89.7292 16.9383 89.6286 17.2401V17.2904C89.2764 19.5543 89.1255 22.0697 89.1255 24.5851C89.1255 25.0379 89.1255 25.5409 89.1255 25.9937L89.1758 26.4465Z" fill="black"/>
</svg>
